<svg id="Layer_1" data-name="Layer 1" xmlns="http://www.w3.org/2000/svg" viewBox="0 0 1082 602.5"><defs><style>.cls-1{fill:none;}.cls-2{fill:#e1e1e5;}.cls-3{fill:#c9c8cc;}.cls-4{fill:#02d1ac;}</style></defs><path class="cls-1" d="M1710.38,691c1,0,1-2.15,1-2.15s-.64-7.12,1.67-11.81H1700v14Z" transform="translate(-799 -159)"/><path class="cls-1" d="M1683,645a17,17,0,0,1,17,17v4h165.06a5,5,0,0,0,4.94-4.94v-486a5.09,5.09,0,0,0-5.09-5.09H1126.09a5.09,5.09,0,0,0-5.09,5.09V436h155.91A16.11,16.11,0,0,1,1293,452.09V666h373v-4A17,17,0,0,1,1683,645Z" transform="translate(-799 -159)"/><path class="cls-1" d="M850,452.09V740h432V452.09a5.09,5.09,0,0,0-5.09-5.09H855.09A5.09,5.09,0,0,0,850,452.09Z" transform="translate(-799 -159)"/><rect class="cls-2" x="631" y="518" width="132" height="73.5"/><path d="M1864.91,159H1126.09A16.11,16.11,0,0,0,1110,175.09V436H855.09A16.11,16.11,0,0,0,839,452.09V750.5h454V677h373V666H1293V452.09A16.11,16.11,0,0,0,1276.91,436H1121V175.09a5.09,5.09,0,0,1,5.09-5.09h738.82a5.09,5.09,0,0,1,5.09,5.09v486a5,5,0,0,1-4.94,4.94H1700v11h13.09c1.13-2.29,3-4,5.91-4a6.83,6.83,0,0,1,6.37,4h139.69A16,16,0,0,0,1881,661.06v-486A16.11,16.11,0,0,0,1864.91,159ZM1282,452.09V740H850V452.09a5.09,5.09,0,0,1,5.09-5.09h421.82A5.09,5.09,0,0,1,1282,452.09Z" transform="translate(-799 -159)"/><path class="cls-3" d="M799,750.5v.5a10.51,10.51,0,0,0,10.5,10.5h517A10.51,10.51,0,0,0,1337,751v-.5H799Z" transform="translate(-799 -159)"/><path class="cls-3" d="M1387,750.5v.5a10.51,10.51,0,0,0,10.5,10.5h197A10.51,10.51,0,0,0,1605,751v-.5H1387Z" transform="translate(-799 -159)"/><path class="cls-3" d="M1683,751h-31a10,10,0,0,0,10,10h42a10,10,0,0,0,10-10h-31Z" transform="translate(-799 -159)"/><path class="cls-2" d="M1682,729h-32.32a.53.53,0,0,0-.52.66c.35,1.44.63,2.88.84,4.34.71,4.87.29,7.16,1,12a45.37,45.37,0,0,0,.9,4.59.54.54,0,0,0,.52.41h61.16a.54.54,0,0,0,.52-.41,45.37,45.37,0,0,0,.9-4.59c.71-4.84.29-7.13,1-12,.21-1.46.49-2.9.84-4.34a.53.53,0,0,0-.52-.66H1682Z" transform="translate(-799 -159)"/><path class="cls-4" d="M1719,673c-3,0-4.78,1.71-5.91,4-2.31,4.69-1.67,11.81-1.67,11.81s0,2.15-1,2.15H1700V662a17,17,0,0,0-34,0v41h-10c-1,0-1-2-1-2s0-11-7-11c-8,0-8,7-8,7s-1,19,16,20h10v12h34V706h10.38c17.65-1.07,16.61-21.48,16.61-21.48a17.68,17.68,0,0,0-1.62-7.52A6.83,6.83,0,0,0,1719,673Z" transform="translate(-799 -159)"/></svg>